<?xml version="1.0" standalone="no"?>
<!DOCTYPE svg PUBLIC "-//W3C//DTD SVG 20010904//EN"
 "http://www.w3.org/TR/2001/REC-SVG-20010904/DTD/svg10.dtd">
<svg version="1.0" xmlns="http://www.w3.org/2000/svg"
 width="567.000000pt" height="316.000000pt" viewBox="0 0 567.000000 316.000000"
 preserveAspectRatio="xMidYMid meet">

<g transform="translate(0.000000,316.000000) scale(0.100000,-0.100000)"
fill="#000000" stroke="none">
<path d="M5330 2767 c-25 -23 -70 -63 -100 -87 -30 -25 -61 -51 -69 -58 -14
-14 -119 -82 -125 -82 -2 0 -34 -18 -71 -41 -217 -131 -560 -247 -590 -199 -4
6 17 37 47 68 71 78 160 208 156 230 -4 22 -53 28 -87 10 -61 -31 -178 -161
-209 -231 -7 -15 -12 -43 -12 -61 0 -27 -11 -43 -73 -102 -40 -38 -97 -89
-127 -114 -30 -25 -57 -47 -60 -50 -3 -3 -21 -17 -40 -30 -19 -14 -42 -32 -51
-40 -18 -17 -33 -29 -99 -80 -25 -19 -47 -37 -50 -40 -3 -3 -21 -17 -40 -30
-19 -13 -37 -27 -40 -30 -7 -8 -80 -50 -87 -50 -3 0 -2 15 1 33 16 75 14 82
-23 85 -29 3 -40 -2 -70 -36 -164 -178 -248 -264 -277 -281 -32 -19 -34 -19
-34 -2 0 10 20 56 45 103 25 47 45 91 45 97 0 6 -15 11 -32 11 -27 0 -37 -7
-55 -35 -13 -19 -23 -39 -23 -45 0 -5 -4 -10 -10 -10 -5 0 -10 -5 -10 -11 0
-9 -55 -97 -69 -109 -3 -3 -26 -34 -50 -69 -25 -36 -63 -85 -85 -110 -77 -86
-131 -141 -138 -141 -19 0 -5 84 31 190 24 70 36 119 30 126 -17 21 -65 4 -82
-29 -9 -18 -33 -61 -52 -97 -20 -36 -49 -87 -64 -115 -79 -144 -154 -255 -173
-255 -19 0 -1 93 31 165 17 36 33 82 37 101 6 33 5 34 -26 34 -38 0 -53 -14
-70 -65 -7 -22 -16 -49 -21 -60 -4 -11 -13 -45 -20 -75 -14 -66 -25 -92 -61
-147 -15 -23 -28 -46 -28 -52 0 -6 -4 -11 -10 -11 -5 0 -10 -7 -10 -15 0 -7
-6 -18 -13 -22 -8 -4 -22 -20 -32 -36 -32 -50 -55 -30 -55 46 1 39 4 60 29
162 26 114 27 105 -11 105 -34 0 -36 -3 -68 -72 -18 -40 -48 -105 -66 -144
-52 -113 -89 -196 -104 -234 -7 -19 -17 -39 -22 -44 -4 -6 -8 -16 -8 -23 0 -7
-9 -32 -19 -56 -27 -61 -30 -72 -21 -86 11 -19 80 15 80 40 0 11 4 27 9 37 5
9 21 55 36 102 42 131 74 202 87 194 4 -3 8 -20 8 -38 0 -65 70 -94 137 -58
30 16 44 33 108 130 39 58 44 63 69 56 30 -7 75 16 103 53 66 86 126 170 130
181 8 18 20 15 26 -7 2 -11 19 -27 36 -35 29 -15 33 -15 68 3 21 10 59 41 84
67 54 58 167 192 178 212 7 12 15 13 39 4 67 -23 104 1 305 203 39 39 72 65
74 58 2 -7 20 -17 39 -23 30 -10 43 -9 92 11 50 20 106 52 122 69 3 3 26 22
52 43 26 21 53 43 60 50 7 7 35 30 62 52 27 21 60 48 72 60 36 33 76 67 134
115 30 25 64 53 75 64 73 67 83 71 174 68 74 -3 99 0 176 26 98 32 200 79 340
156 98 53 208 125 213 138 2 4 9 8 17 8 11 0 134 106 159 139 6 7 23 27 39 43
31 34 51 68 40 68 -4 0 -28 -19 -53 -43z"/>
<path d="M2790 2644 c-71 -14 -169 -44 -228 -70 -248 -109 -470 -252 -612
-393 -53 -53 -110 -114 -126 -136 -16 -22 -31 -42 -34 -45 -3 -3 -11 -16 -18
-29 -8 -13 -22 -39 -33 -58 -10 -18 -19 -40 -19 -48 0 -8 -4 -15 -10 -15 -5 0
-10 -7 -10 -15 0 -8 -4 -23 -9 -33 -19 -37 -30 -90 -32 -149 -2 -49 -7 -66
-23 -81 -30 -27 -77 -81 -106 -122 -13 -19 -42 -53 -63 -76 -34 -37 -43 -42
-72 -37 -49 8 -114 -26 -179 -93 -64 -66 -64 -66 -25 66 11 36 24 83 30 105 6
22 15 51 20 65 4 14 11 44 14 67 6 35 4 44 -11 50 -28 10 -43 -20 -85 -172 -7
-22 -19 -65 -29 -95 -28 -89 -39 -131 -56 -215 -9 -44 -20 -98 -25 -120 -5
-22 -12 -56 -15 -75 -3 -19 -9 -51 -14 -70 -12 -45 -54 -228 -70 -305 -7 -33
-16 -71 -20 -85 -24 -76 -42 -182 -32 -192 16 -16 37 34 61 146 12 55 25 104
28 109 8 13 40 139 57 227 7 36 24 109 37 164 l23 98 44 -6 c24 -3 52 -1 63 5
40 21 49 8 27 -41 -37 -83 -46 -105 -59 -145 -7 -22 -17 -44 -21 -49 -4 -6 -8
-20 -8 -33 0 -12 -4 -32 -9 -45 -34 -87 -45 -313 -20 -400 16 -53 37 -88 54
-88 31 0 133 169 198 330 10 25 27 65 37 90 26 63 85 234 105 305 9 33 21 71
25 85 5 14 18 59 30 100 12 41 25 82 28 90 3 8 7 26 9 40 2 14 8 29 14 35 5 5
9 18 9 30 0 12 4 25 9 31 4 5 16 34 25 64 27 88 24 83 42 66 17 -18 74 -22 74
-6 0 6 -9 29 -21 52 l-21 41 124 122 c67 67 139 132 158 145 19 13 37 27 40
30 3 3 21 17 40 30 19 13 41 30 48 37 7 7 17 13 20 13 4 0 20 12 35 26 42 39
20 53 -35 23 -23 -13 -45 -27 -48 -30 -3 -3 -34 -25 -70 -49 -36 -24 -67 -46
-70 -49 -3 -4 -30 -26 -60 -51 -30 -25 -81 -71 -114 -102 -33 -32 -64 -58 -69
-58 -14 0 -1 99 19 146 73 177 174 312 319 422 33 25 62 49 65 52 53 60 402
258 514 292 184 54 271 61 343 29 80 -37 104 -136 57 -234 -18 -38 -14 -58 8
-39 22 18 43 104 43 174 0 60 -3 70 -29 96 -31 33 -141 73 -191 70 -16 -1 -59
-7 -95 -14z m-1200 -1262 c0 -6 -6 -36 -39 -182 -5 -19 -21 -73 -36 -120 -15
-47 -38 -117 -51 -156 -33 -102 -72 -203 -123 -316 -12 -26 -21 -49 -21 -52 0
-5 -61 -137 -94 -203 -11 -24 -24 -43 -27 -43 -55 0 -40 313 23 480 44 116
136 295 199 386 16 23 29 47 29 51 0 5 8 18 18 29 10 10 23 26 28 35 5 9 25
35 44 57 33 39 50 51 50 34z m-200 -112 c-5 -10 -16 -24 -23 -32 -7 -7 -29
-36 -50 -65 -39 -54 -101 -113 -117 -113 -16 0 -12 19 25 95 39 83 73 122 113
131 15 3 32 7 37 9 18 5 25 -6 15 -25z"/>
<path d="M1365 2269 c-16 -5 -46 -15 -65 -21 -105 -33 -279 -135 -392 -229
-66 -56 -190 -181 -237 -239 -20 -25 -46 -56 -59 -70 -12 -14 -22 -28 -22 -31
0 -3 -11 -19 -25 -35 -14 -16 -25 -34 -25 -41 0 -6 -4 -13 -8 -15 -13 -5 -106
-196 -121 -248 -7 -25 -17 -54 -22 -65 -23 -56 -36 -340 -18 -415 25 -109 91
-170 135 -125 13 13 12 18 -8 47 -13 18 -26 35 -29 38 -3 3 -12 21 -20 40 -10
26 -14 77 -13 195 0 136 4 171 23 235 28 94 72 188 122 262 22 32 39 61 39 64
0 4 12 21 28 39 15 18 38 48 52 66 32 43 158 178 190 204 14 11 36 31 50 45
38 38 187 143 260 183 36 19 97 44 135 54 90 23 228 24 270 1 74 -40 95 -80
95 -178 0 -39 3 -70 8 -70 4 0 17 21 28 46 20 43 21 49 7 104 -30 118 -112
171 -266 169 -45 0 -95 -5 -112 -10z"/>
<path d="M2240 1749 c-14 -22 -42 -68 -63 -101 -21 -34 -50 -86 -64 -117 -31
-70 -164 -473 -225 -681 -11 -36 -37 -103 -69 -177 -11 -24 -19 -47 -19 -51 0
-5 -6 -22 -14 -38 -13 -28 -33 -72 -61 -139 -7 -16 -27 -63 -45 -104 -24 -56
-29 -76 -19 -81 34 -21 42 -7 147 265 86 222 76 195 129 350 46 136 99 286
114 320 4 11 29 72 55 135 25 63 71 165 100 227 30 62 54 119 54 127 0 8 4 17
9 20 19 12 21 86 2 86 -4 0 -18 -18 -31 -41z"/>
</g>
</svg>
